<svg xmlns="http://www.w3.org/2000/svg" version="1.1">
<rect x="0" y="0" width="100" height="20" style="fill:white;stroke:black;stroke-width:2"/>
<text x="50" y="15" text-anchor="middle" style="font-family: Arial, Helvetica, sans-serif">
(A,1)</text>
<line x1="50" y1="20" x2="50" y2="400" style="stroke:black;stroke-width:2" />
<rect x="25" y="400" width="50" height="10" style="fill:black;stroke:black;stroke-width:2"/>
<rect x="336" y="0" width="100" height="20" style="fill:white;stroke:black;stroke-width:2"/>
<text x="386" y="15" text-anchor="middle" style="font-family: Arial, Helvetica, sans-serif">
i</text>
<line x1="386" y1="20" x2="386" y2="400" style="stroke:black;stroke-width:2" />
<rect x="361" y="400" width="50" height="10" style="fill:black;stroke:black;stroke-width:2"/>
<rect x="672" y="0" width="100" height="20" style="fill:white;stroke:black;stroke-width:2"/>
<text x="722" y="15" text-anchor="middle" style="font-family: Arial, Helvetica, sans-serif">
icanproducesecretM(2)</text>
<line x1="722" y1="20" x2="722" y2="400" style="stroke:black;stroke-width:2" />
<rect x="697" y="400" width="50" height="10" style="fill:black;stroke:black;stroke-width:2"/>
<line x1="50.0" y1="50" x2="386.0" y2="50" style="stroke:black;stroke-width:2" />
<line x1="376.0" y1="40" x2="386.0" y2="50" style="stroke:black;stroke-width:2" />
<line x1="376.0" y1="60" x2="386.0" y2="50" style="stroke:black;stroke-width:2" />
<text x="218.0" y="45" text-anchor="middle" style="font-family: Arial, Helvetica, sans-serif"> A,B,exp(g,X(1)),{|A,B,exp(g,X(1))|}_(ck(A,i))</text>
<line x1="50.0" y1="100" x2="386.0" y2="100" style="stroke:black;stroke-width:2" />
<line x1="60.0" y1="90" x2="50.0" y2="100" style="stroke:black;stroke-width:2" />
<line x1="60.0" y1="110" x2="50.0" y2="100" style="stroke:black;stroke-width:2" />
<text x="218.0" y="95" text-anchor="middle" style="font-family: Arial, Helvetica, sans-serif"> g,{|B,A,exp(g,X(1)),g|}_(sk(A,i))</text>
<line x1="50.0" y1="150" x2="386.0" y2="150" style="stroke:black;stroke-width:2" />
<line x1="376.0" y1="140" x2="386.0" y2="150" style="stroke:black;stroke-width:2" />
<line x1="376.0" y1="160" x2="386.0" y2="150" style="stroke:black;stroke-width:2" />
<text x="218.0" y="145" text-anchor="middle" style="font-family: Arial, Helvetica, sans-serif"> {|M(2)|}_(exp(g,X(1)))</text>
<line x1="722.0" y1="200" x2="722.0" y2="200" style="stroke:black;stroke-width:2" />
<line x1="732.0" y1="190" x2="722.0" y2="200" style="stroke:black;stroke-width:2" />
<line x1="732.0" y1="210" x2="722.0" y2="200" style="stroke:black;stroke-width:2" />
<text x="722.0" y="195" text-anchor="middle" style="font-family: Arial, Helvetica, sans-serif">i can produce secret M(2)</text>
</svg>